<mxfile host="app.diagrams.net" modified="2024-06-12T15:47:30.606Z" agent="Mozilla/5.0 (Windows NT 10.0; Win64; x64) AppleWebKit/537.36 (KHTML, like Gecko) Chrome/125.0.0.0 Safari/537.36 Edg/125.0.0.0" version="24.5.3" etag="3x2p_orqom5PJoweih2x" type="github">
  <diagram name="Page-1" id="qKNlVm_Qh70g8O7-uWBg">
    <mxGraphModel>
      <root>
        <mxCell id="0" />
        <mxCell id="1" parent="0" />
      </root>
    </mxGraphModel>
  </diagram>
</mxfile>
